<svg version="1.2" xmlns="http://www.w3.org/2000/svg" viewBox="0 0 1694 500" width="1694" height="500"><style>.a{fill:#fff}</style><path class="a" d="m23.3 359h61.1v-148.6h32.8v-50.7h-32.8v-1.8c0-21 8.2-28.2 31.8-26.7v-51.8c-60.7-3.2-92.9 22.5-92.9 74.6v5.7h-22.1v50.7h22.1zm122.5 0h61.1v-264.2h-61.1zm93.2-100c0 62.8 38.9 102.8 87.5 102.8 29.7 0 50.7-13.6 61.8-31.1v28.3h61.1v-199.3h-61.1v28.2c-10.7-17.5-31.8-31.1-61.4-31.1-49 0-87.9 39.3-87.9 102.2zm149.3 0.3c0 31.8-20.4 49.3-43.6 49.3-22.8 0-43.5-17.9-43.5-49.6 0-31.8 20.7-49 43.5-49 23.2 0 43.6 17.5 43.6 49.3zm247.1-99.6h-152.1v50.3h82.1l-82.8 100.4v48.6h154.6v-50.4h-86.4l84.6-100.3zm123.2 46c20.4 0 37.5 12.5 37.5 34.3h-76.4c3.6-22.1 18.9-34.3 38.9-34.3zm95.4 87.2h-65c-5 10.7-14.6 19.2-31.8 19.2-19.6 0-35.7-12.1-37.8-38.2h138.2c0.7-6 1-12.1 1-17.8 0-60.7-41-99.3-99.2-99.3-59.3 0-100.8 39.3-100.8 102.5 0 63.2 42.2 102.5 100.8 102.5 49.6 0 85-30 94.6-68.9zm49.3 12.5c0 39.2 19.6 53.5 54.3 53.5h29.2v-27.5h-23.9c-20 0-27.1-6.8-27.1-26v-115.4h51v-26.8h-51v-49.3h-32.5v49.3h-25.4v26.8h25.4zm206-117.8c33.6 0 62.2 21 61.8 59.2h-123.5c3.5-38.2 30-59.2 61.7-59.2zm91.5 111h-35c-7.2 21.1-25.7 36.1-55 36.1-33.2 0-61.1-21.8-63.6-61.4h156.4c0.7-6.8 1.1-12.5 1.1-19.7 0-53.5-37.1-93.5-93.9-93.5-57.2 0-96.8 38.9-96.8 100.7 0 62.1 41.1 101.4 96.8 101.4 48.5 0 80-27.9 90-63.6zm34.6-37.8c0 62.1 39.6 101.4 95.4 101.4 48.5 0 80.3-27.1 90.3-66.1h-35c-7.1 24.7-26.4 38.6-55.3 38.6-35.8 0-62.2-25.4-62.2-73.9 0-47.9 26.4-73.2 62.2-73.2 28.9 0 48.5 15 55.3 38.5h35c-10-41-41.8-66-90.3-66-55.8 0-95.4 39.2-95.4 100.7zm228.9 98.2h32.5v-108.2c0-42.2 22.9-62.9 56.1-62.9 32.8 0 54.6 20.4 54.6 60.4v110.7h32.2v-115.4c0-56-34.7-83.9-78.2-83.9-27.5 0-51.8 11.1-64.7 31.8v-96.8h-32.5z"/></svg>